<svg width="42" height="36" viewBox="0 0 42 36" fill="none" xmlns="http://www.w3.org/2000/svg">
<rect width="42" height="36" fill="white"/>
<path d="M10.5234 13.9587C10.5234 12.895 9.74667 12.0133 8.73198 11.8524C8.80895 12.0343 8.84394 12.2302 8.84394 12.4332C8.84394 13.2729 8.16515 13.9587 7.3184 13.9587C6.92652 13.9587 6.56963 13.8118 6.29671 13.5668C6.26872 13.6928 6.26172 13.8258 6.26172 13.9587C6.26172 15.1344 7.21343 16.0861 8.38908 16.0861C9.57172 16.0861 10.5234 15.1344 10.5234 13.9587Z" fill="#E27543" fill-opacity="0.7"/>
<path d="M33.9944 11.8524C34.0714 12.0343 34.1064 12.2302 34.1064 12.4332C34.1064 13.2729 33.4276 13.9587 32.5878 13.9587C32.1959 13.9587 31.832 13.8118 31.5661 13.5668C31.5381 13.6928 31.5311 13.8258 31.5311 13.9587C31.5311 15.1344 32.4828 16.0861 33.6585 16.0861C34.8341 16.0861 35.7859 15.1344 35.7859 13.9587C35.7859 12.895 35.0091 12.0133 33.9944 11.8524Z" fill="#E27543" fill-opacity="0.7"/>
<path d="M40.0336 13.9587C40.0336 10.4388 37.1714 7.57663 33.6515 7.57663C30.5304 7.57663 27.9342 9.82295 27.3814 12.7901C26.0798 12.3142 24.6942 11.9853 23.2806 11.8174C22.9797 11.1665 22.4199 10.6697 21.7271 10.4668V6.48496C22.3779 6.21204 22.8327 5.56823 22.8327 4.81246C22.8327 3.81176 22.021 3 21.0203 3C20.0196 3 19.2078 3.81176 19.2078 4.81246C19.2078 5.56123 19.6627 6.20504 20.3135 6.48496V10.4668C19.6207 10.6697 19.0539 11.1665 18.753 11.8174C17.3394 11.9853 15.9608 12.3142 14.6522 12.7901C14.0994 9.82995 11.5031 7.57663 8.38208 7.57663C4.86214 7.57663 2 10.4388 2 13.9587C2 16.7579 3.81246 19.1442 6.3317 19.9979C5.61791 21.5164 5.24703 23.14 5.24703 24.7775C5.24703 26.0441 5.46396 27.2897 5.89083 28.4934C6.45066 30.0679 8.36809 31.2575 11.5941 32.0343C14.1693 32.6571 17.5143 33 21.0063 33C24.4982 33 27.8432 32.6571 30.4185 32.0343C33.6445 31.2575 35.5689 30.0609 36.1218 28.4934C36.5486 27.2897 36.7656 26.0371 36.7656 24.7775C36.7656 23.14 36.3947 21.5094 35.6809 19.9979C38.2211 19.1442 40.0336 16.7579 40.0336 13.9587ZM14.6242 15.3303C16.5836 14.4766 18.781 14.0217 21.0273 14.0217C23.2736 14.0217 25.471 14.4766 27.4304 15.3303C28.0322 18.0525 30.3765 20.1309 33.2316 20.3198C34.0364 21.7194 34.4423 23.2169 34.4423 24.7775C34.4423 25.0994 34.4213 25.4143 34.3863 25.7362C30.7754 22.3772 26.0168 20.4878 21.0273 20.4878C16.0378 20.4878 11.2792 22.3772 7.6683 25.7362C7.63331 25.4213 7.61231 25.0994 7.61231 24.7775C7.61231 23.2169 8.01819 21.7194 8.82295 20.3198C11.6711 20.1309 14.0224 18.0595 14.6242 15.3303ZM4.35829 13.9587C4.35829 11.7334 6.16375 9.92792 8.38908 9.92792C10.6144 9.92792 12.4199 11.7334 12.4199 13.9587C12.4199 16.184 10.6074 17.9895 8.38908 17.9895C6.17075 17.9895 4.35829 16.184 4.35829 13.9587ZM21.0203 30.6557C14.5682 30.6557 9.85864 29.4661 8.48705 28.2204C11.7481 24.7845 16.2687 22.832 21.0203 22.832C25.7789 22.832 30.2995 24.7845 33.5535 28.2204C32.1889 29.4731 27.4794 30.6557 21.0203 30.6557ZM33.6585 17.9895C31.4332 17.9895 29.6277 16.184 29.6277 13.9587C29.6277 11.7334 31.4332 9.92792 33.6585 9.92792C35.8838 9.92792 37.6893 11.7334 37.6893 13.9587C37.6893 16.184 35.8768 17.9895 33.6585 17.9895Z" fill="#E27543"/>
<path d="M18.76 19.4311C19.4209 19.4311 19.9566 18.8953 19.9566 18.2344C19.9566 17.5735 19.4209 17.0378 18.76 17.0378C18.0991 17.0378 17.5633 17.5735 17.5633 18.2344C17.5633 18.8953 18.0991 19.4311 18.76 19.4311Z" fill="#E27543"/>
<path d="M23.7425 19.4311C24.4034 19.4311 24.9391 18.8953 24.9391 18.2344C24.9391 17.5735 24.4034 17.0378 23.7425 17.0378C23.0816 17.0378 22.5458 17.5735 22.5458 18.2344C22.5458 18.8953 23.0816 19.4311 23.7425 19.4311Z" fill="#E27543"/>
</svg>
